<svg version="1.1" viewBox="0.0 0.0 672.0 480.0" fill="none" stroke="none" stroke-linecap="square" stroke-miterlimit="10" xmlns:xlink="http://www.w3.org/1999/xlink" xmlns="http://www.w3.org/2000/svg"><clipPath id="p.0"><path d="m0 0l672.0 0l0 480.0l-672.0 0l0 -480.0z" clip-rule="nonzero"/></clipPath><g clip-path="url(#p.0)"><path fill="#000000" fill-opacity="0.0" d="m0 0l672.0 0l0 480.0l-672.0 0z" fill-rule="evenodd"/><path fill="#ead1dc" d="m279.84747 113.103424l0 0c0 -5.9304276 4.8075867 -10.737991 10.738007 -10.737991l108.44528 0c2.8478699 0 5.579132 1.1313248 7.5928955 3.1450882c2.0137634 2.0137634 3.1450806 4.7450104 3.1450806 7.592903l0 286.46103c0 5.93042 -4.807556 10.737976 -10.737976 10.737976l-108.44528 0c-5.93042 0 -10.738007 -4.807556 -10.738007 -10.737976z" fill-rule="evenodd"/><path stroke="#000000" stroke-width="1.0" stroke-linejoin="round" stroke-linecap="butt" stroke-dasharray="4.0,3.0,1.0,3.0" d="m279.84747 113.103424l0 0c0 -5.9304276 4.8075867 -10.737991 10.738007 -10.737991l108.44528 0c2.8478699 0 5.579132 1.1313248 7.5928955 3.1450882c2.0137634 2.0137634 3.1450806 4.7450104 3.1450806 7.592903l0 286.46103c0 5.93042 -4.807556 10.737976 -10.737976 10.737976l-108.44528 0c-5.93042 0 -10.738007 -4.807556 -10.738007 -10.737976z" fill-rule="evenodd"/><path fill="#000000" fill-opacity="0.0" d="m280.31946 367.40274l129.92126 0l0 38.771637l-129.92126 0z" fill-rule="evenodd"/><path fill="#000000" d="m302.90118 391.76273l0 -11.453125l2.25 0l4.6875 7.640625l0 -7.640625l2.15625 0l0 11.453125l-2.328125 0l-4.609375 -7.46875l0 7.46875l-2.15625 0zm14.4609375 0l-4.109375 -11.453125l2.515625 0l2.90625 8.46875l2.796875 -8.46875l2.453125 0l-4.09375 11.453125l-2.46875 0zm7.15625 -3.734375l2.25 -0.21875q0.203125 1.140625 0.828125 1.671875q0.625 0.53125 1.671875 0.53125q1.125 0 1.6875 -0.46875q0.5625 -0.484375 0.5625 -1.109375q0 -0.40625 -0.234375 -0.6875q-0.234375 -0.296875 -0.828125 -0.5q-0.40625 -0.140625 -1.859375 -0.5q-1.859375 -0.46875 -2.609375 -1.140625q-1.046875 -0.9375 -1.046875 -2.296875q0 -0.875 0.484375 -1.640625q0.5 -0.765625 1.4375 -1.15625q0.9375 -0.40625 2.25 -0.40625q2.15625 0 3.25 0.953125q1.09375 0.9375 1.140625 2.515625l-2.3125 0.109375q-0.140625 -0.890625 -0.640625 -1.265625q-0.484375 -0.390625 -1.453125 -0.390625q-1.015625 0 -1.578125 0.40625q-0.375 0.265625 -0.375 0.71875q0 0.40625 0.34375 0.6875q0.4375 0.375 2.125 0.78125q1.6875 0.390625 2.5 0.8125q0.8125 0.421875 1.265625 1.171875q0.453125 0.734375 0.453125 1.8125q0 0.984375 -0.546875 1.84375q-0.546875 0.859375 -1.546875 1.28125q-1.0 0.421875 -2.484375 0.421875q-2.171875 0 -3.34375 -1.0q-1.15625 -1.015625 -1.390625 -2.9375zm15.2421875 -1.921875q0 -1.75 0.515625 -2.9375q0.390625 -0.875 1.0625 -1.5625q0.6875 -0.703125 1.484375 -1.046875q1.078125 -0.453125 2.46875 -0.453125q2.53125 0 4.046875 1.578125q1.53125 1.5625 1.53125 4.359375q0 2.78125 -1.515625 4.359375q-1.5 1.5625 -4.03125 1.5625q-2.546875 0 -4.0625 -1.5625q-1.5 -1.5625 -1.5 -4.296875zm2.375 -0.078125q0 1.9375 0.890625 2.953125q0.90625 1.0 2.296875 1.0q1.375 0 2.265625 -1.0q0.890625 -1.0 0.890625 -2.984375q0 -1.96875 -0.875 -2.9375q-0.859375 -0.96875 -2.28125 -0.96875q-1.4375 0 -2.3125 0.984375q-0.875 0.96875 -0.875 2.953125zm10.4296875 5.734375l0 -11.453125l2.1875 0l0 4.125q1.015625 -1.15625 2.40625 -1.15625q1.515625 0 2.5 1.09375q1.0 1.09375 1.0 3.15625q0 2.125 -1.015625 3.28125q-1.0 1.140625 -2.453125 1.140625q-0.703125 0 -1.40625 -0.359375q-0.6875 -0.359375 -1.1875 -1.046875l0 1.21875l-2.03125 0zm2.171875 -4.328125q0 1.28125 0.40625 1.90625q0.578125 0.875 1.515625 0.875q0.734375 0 1.234375 -0.625q0.515625 -0.625 0.515625 -1.953125q0 -1.421875 -0.515625 -2.046875q-0.515625 -0.640625 -1.3125 -0.640625q-0.796875 0 -1.328125 0.625q-0.515625 0.609375 -0.515625 1.859375zm7.6484375 -5.09375l0 -2.03125l2.1875 0l0 2.03125l-2.1875 0zm2.1875 1.125l0 8.03125q0 1.59375 -0.203125 2.25q-0.203125 0.65625 -0.796875 1.015625q-0.59375 0.375 -1.5 0.375q-0.328125 0 -0.71875 -0.0625q-0.375 -0.0625 -0.8125 -0.171875l0.375 -1.875q0.15625 0.03125 0.296875 0.046875q0.140625 0.015625 0.265625 0.015625q0.328125 0 0.546875 -0.140625q0.21875 -0.140625 0.28125 -0.34375q0.078125 -0.203125 0.078125 -1.234375l0 -7.90625l2.1875 0zm7.1015625 5.65625l2.1875 0.359375q-0.421875 1.203125 -1.328125 1.84375q-0.90625 0.625 -2.28125 0.625q-2.15625 0 -3.203125 -1.421875q-0.8125 -1.125 -0.8125 -2.859375q0 -2.0625 1.078125 -3.21875q1.078125 -1.171875 2.71875 -1.171875q1.859375 0 2.921875 1.21875q1.078125 1.21875 1.03125 3.75l-5.5 0q0.015625 0.96875 0.515625 1.515625q0.515625 0.546875 1.28125 0.546875q0.515625 0 0.859375 -0.28125q0.359375 -0.28125 0.53125 -0.90625zm0.125 -2.21875q-0.015625 -0.953125 -0.484375 -1.453125q-0.46875 -0.5 -1.140625 -0.5q-0.71875 0 -1.1875 0.53125q-0.46875 0.515625 -0.46875 1.421875l3.28125 0zm11.2109375 -0.984375l-2.171875 0.390625q-0.109375 -0.65625 -0.5 -0.984375q-0.375 -0.328125 -1.0 -0.328125q-0.8125 0 -1.3125 0.578125q-0.484375 0.5625 -0.484375 1.890625q0 1.46875 0.5 2.078125q0.5 0.609375 1.328125 0.609375q0.625 0 1.015625 -0.34375q0.40625 -0.359375 0.578125 -1.234375l2.15625 0.375q-0.34375 1.484375 -1.296875 2.25q-0.953125 0.75 -2.546875 0.75q-1.828125 0 -2.90625 -1.140625q-1.078125 -1.15625 -1.078125 -3.1875q0 -2.0625 1.078125 -3.203125q1.09375 -1.140625 2.9375 -1.140625q1.515625 0 2.40625 0.65625q0.90625 0.640625 1.296875 1.984375zm5.4609375 -2.453125l0 1.75l-1.5 0l0 3.34375q0 1.015625 0.046875 1.1875q0.046875 0.15625 0.1875 0.265625q0.15625 0.109375 0.375 0.109375q0.3125 0 0.890625 -0.203125l0.1875 1.703125q-0.765625 0.328125 -1.734375 0.328125q-0.59375 0 -1.078125 -0.203125q-0.46875 -0.203125 -0.703125 -0.515625q-0.21875 -0.3125 -0.296875 -0.859375q-0.078125 -0.375 -0.078125 -1.546875l0 -3.609375l-1.0 0l0 -1.75l1.0 0l0 -1.65625l2.203125 -1.28125l0 2.9375l1.5 0z" fill-rule="nonzero"/><path fill="#ead1dc" d="m85.49966 113.103424l0 0c0 -5.9304276 4.807564 -10.737991 10.737991 -10.737991l108.445274 0c2.8479004 0 5.5791473 1.1313248 7.592911 3.1450882c2.0137634 2.0137634 3.1450806 4.7450104 3.1450806 7.592903l0 286.46103c0 5.93042 -4.807556 10.737976 -10.737991 10.737976l-108.445274 0c-5.9304276 0 -10.737991 -4.807556 -10.737991 -10.737976z" fill-rule="evenodd"/><path stroke="#000000" stroke-width="1.0" stroke-linejoin="round" stroke-linecap="butt" stroke-dasharray="4.0,3.0,1.0,3.0" d="m85.49966 113.103424l0 0c0 -5.9304276 4.807564 -10.737991 10.737991 -10.737991l108.445274 0c2.8479004 0 5.5791473 1.1313248 7.592911 3.1450882c2.0137634 2.0137634 3.1450806 4.7450104 3.1450806 7.592903l0 286.46103c0 5.93042 -4.807556 10.737976 -10.737991 10.737976l-108.445274 0c-5.9304276 0 -10.737991 -4.807556 -10.737991 -10.737976z" fill-rule="evenodd"/><path fill="#000000" fill-opacity="0.0" d="m85.971634 350.96796l129.92126 0l0 58.173218l-129.92126 0z" fill-rule="evenodd"/><path fill="#000000" d="m130.29945 369.6717q0 -1.75 0.515625 -2.9375q0.390625 -0.875 1.0625 -1.5625q0.6875 -0.703125 1.484375 -1.046875q1.078125 -0.453125 2.46875 -0.453125q2.53125 0 4.046875 1.578125q1.53125 1.5625 1.53125 4.359375q0 2.78125 -1.515625 4.359375q-1.5 1.5625 -4.03125 1.5625q-2.546875 0 -4.0625 -1.5625q-1.5 -1.5625 -1.5 -4.296875zm2.375 -0.078125q0 1.9375 0.890625 2.953125q0.90625 1.0 2.296875 1.0q1.375 0 2.265625 -1.0q0.890625 -1.0 0.890625 -2.984375q0 -1.96875 -0.875 -2.9375q-0.859375 -0.96875 -2.28125 -0.96875q-1.4375 0 -2.3125 0.984375q-0.875 0.96875 -0.875 2.953125zm14.3203125 -2.5625l0 1.75l-1.5 0l0 3.34375q0 1.015625 0.046875 1.1875q0.046875 0.15625 0.1875 0.265625q0.15625 0.109375 0.375 0.109375q0.3125 0 0.890625 -0.203125l0.1875 1.703125q-0.765625 0.328125 -1.734375 0.328125q-0.59375 0 -1.078125 -0.203125q-0.46875 -0.203125 -0.703125 -0.515625q-0.21875 -0.3125 -0.296875 -0.859375q-0.078125 -0.375 -0.078125 -1.546875l0 -3.609375l-1.0 0l0 -1.75l1.0 0l0 -1.65625l2.203125 -1.28125l0 2.9375l1.5 0zm3.71875 -3.15625l0 4.203125q1.0625 -1.234375 2.53125 -1.234375q0.765625 0 1.375 0.28125q0.609375 0.28125 0.90625 0.71875q0.3125 0.4375 0.421875 0.96875q0.125 0.53125 0.125 1.640625l0 4.875l-2.203125 0l0 -4.390625q0 -1.296875 -0.125 -1.640625q-0.125 -0.359375 -0.4375 -0.5625q-0.3125 -0.21875 -0.796875 -0.21875q-0.546875 0 -0.984375 0.265625q-0.421875 0.265625 -0.625 0.8125q-0.1875 0.53125 -0.1875 1.578125l0 4.15625l-2.203125 0l0 -11.453125l2.203125 0zm12.3828125 8.8125l2.1875 0.359375q-0.421875 1.203125 -1.328125 1.84375q-0.90625 0.625 -2.28125 0.625q-2.15625 0 -3.203125 -1.421875q-0.8125 -1.125 -0.8125 -2.859375q0 -2.0625 1.078125 -3.21875q1.078125 -1.171875 2.71875 -1.171875q1.859375 0 2.921875 1.21875q1.078125 1.21875 1.03125 3.75l-5.5 0q0.015625 0.96875 0.515625 1.515625q0.515625 0.546875 1.28125 0.546875q0.515625 0 0.859375 -0.28125q0.359375 -0.28125 0.53125 -0.90625zm0.125 -2.21875q-0.015625 -0.953125 -0.484375 -1.453125q-0.46875 -0.5 -1.140625 -0.5q-0.71875 0 -1.1875 0.53125q-0.46875 0.515625 -0.46875 1.421875l3.28125 0zm6.0703125 4.859375l-2.1875 0l0 -8.296875l2.03125 0l0 1.171875q0.53125 -0.828125 0.9375 -1.09375q0.421875 -0.265625 0.953125 -0.265625q0.75 0 1.453125 0.40625l-0.6875 1.921875q-0.546875 -0.359375 -1.03125 -0.359375q-0.453125 0 -0.78125 0.25q-0.3125 0.25 -0.5 0.921875q-0.1875 0.65625 -0.1875 2.78125l0 2.5625z" fill-rule="nonzero"/><path fill="#000000" d="m122.29164 388.8717q0 -1.75 0.515625 -2.9375q0.390625 -0.875 1.0625 -1.5625q0.6875 -0.703125 1.484375 -1.046875q1.078125 -0.453125 2.46875 -0.453125q2.53125 0 4.046875 1.578125q1.53125 1.5625 1.53125 4.359375q0 2.78125 -1.515625 4.359375q-1.5 1.5625 -4.03125 1.5625q-2.546875 0 -4.0625 -1.5625q-1.5 -1.5625 -1.5 -4.296875zm2.375 -0.078125q0 1.9375 0.890625 2.953125q0.90625 1.0 2.296875 1.0q1.375 0 2.265625 -1.0q0.890625 -1.0 0.890625 -2.984375q0 -1.96875 -0.875 -2.9375q-0.859375 -0.96875 -2.28125 -0.96875q-1.4375 0 -2.3125 0.984375q-0.875 0.96875 -0.875 2.953125zm10.4296875 5.734375l0 -11.453125l2.1875 0l0 4.125q1.015625 -1.15625 2.40625 -1.15625q1.515625 0 2.5 1.09375q1.0 1.09375 1.0 3.15625q0 2.125 -1.015625 3.28125q-1.0 1.140625 -2.453125 1.140625q-0.703125 0 -1.40625 -0.359375q-0.6875 -0.359375 -1.1875 -1.046875l0 1.21875l-2.03125 0zm2.171875 -4.328125q0 1.28125 0.40625 1.90625q0.578125 0.875 1.515625 0.875q0.734375 0 1.234375 -0.625q0.515625 -0.625 0.515625 -1.953125q0 -1.421875 -0.515625 -2.046875q-0.515625 -0.640625 -1.3125 -0.640625q-0.796875 0 -1.328125 0.625q-0.515625 0.609375 -0.515625 1.859375zm7.6484375 -5.09375l0 -2.03125l2.1875 0l0 2.03125l-2.1875 0zm2.1875 1.125l0 8.03125q0 1.59375 -0.203125 2.25q-0.203125 0.65625 -0.796875 1.015625q-0.59375 0.375 -1.5 0.375q-0.328125 0 -0.71875 -0.0625q-0.375 -0.0625 -0.8125 -0.171875l0.375 -1.875q0.15625 0.03125 0.296875 0.046875q0.140625 0.015625 0.265625 0.015625q0.328125 0 0.546875 -0.140625q0.21875 -0.140625 0.28125 -0.34375q0.078125 -0.203125 0.078125 -1.234375l0 -7.90625l2.1875 0zm7.1015625 5.65625l2.1875 0.359375q-0.421875 1.203125 -1.328125 1.84375q-0.90625 0.625 -2.28125 0.625q-2.15625 0 -3.203125 -1.421875q-0.8125 -1.125 -0.8125 -2.859375q0 -2.0625 1.078125 -3.21875q1.078125 -1.171875 2.71875 -1.171875q1.859375 0 2.921875 1.21875q1.078125 1.21875 1.03125 3.75l-5.5 0q0.015625 0.96875 0.515625 1.515625q0.515625 0.546875 1.28125 0.546875q0.515625 0 0.859375 -0.28125q0.359375 -0.28125 0.53125 -0.90625zm0.125 -2.21875q-0.015625 -0.953125 -0.484375 -1.453125q-0.46875 -0.5 -1.140625 -0.5q-0.71875 0 -1.1875 0.53125q-0.46875 0.515625 -0.46875 1.421875l3.28125 0zm11.2109375 -0.984375l-2.171875 0.390625q-0.109375 -0.65625 -0.5 -0.984375q-0.375 -0.328125 -1.0 -0.328125q-0.8125 0 -1.3125 0.578125q-0.484375 0.5625 -0.484375 1.890625q0 1.46875 0.5 2.078125q0.5 0.609375 1.328125 0.609375q0.625 0 1.015625 -0.34375q0.40625 -0.359375 0.578125 -1.234375l2.15625 0.375q-0.34375 1.484375 -1.296875 2.25q-0.953125 0.75 -2.546875 0.75q-1.828125 0 -2.90625 -1.140625q-1.078125 -1.15625 -1.078125 -3.1875q0 -2.0625 1.078125 -3.203125q1.09375 -1.140625 2.9375 -1.140625q1.515625 0 2.40625 0.65625q0.90625 0.640625 1.296875 1.984375zm5.4609375 -2.453125l0 1.75l-1.5 0l0 3.34375q0 1.015625 0.046875 1.1875q0.046875 0.15625 0.1875 0.265625q0.15625 0.109375 0.375 0.109375q0.3125 0 0.890625 -0.203125l0.1875 1.703125q-0.765625 0.328125 -1.734375 0.328125q-0.59375 0 -1.078125 -0.203125q-0.46875 -0.203125 -0.703125 -0.515625q-0.21875 -0.3125 -0.296875 -0.859375q-0.078125 -0.375 -0.078125 -1.546875l0 -3.609375l-1.0 0l0 -1.75l1.0 0l0 -1.65625l2.203125 -1.28125l0 2.9375l1.5 0zm0.75 5.921875l2.203125 -0.328125q0.140625 0.640625 0.5625 0.96875q0.4375 0.328125 1.21875 0.328125q0.84375 0 1.28125 -0.3125q0.28125 -0.21875 0.28125 -0.578125q0 -0.25 -0.15625 -0.421875q-0.15625 -0.15625 -0.734375 -0.28125q-2.65625 -0.59375 -3.359375 -1.078125q-0.984375 -0.671875 -0.984375 -1.859375q0 -1.078125 0.84375 -1.8125q0.859375 -0.734375 2.640625 -0.734375q1.703125 0 2.53125 0.5625q0.828125 0.546875 1.140625 1.625l-2.0625 0.390625q-0.140625 -0.484375 -0.515625 -0.734375q-0.359375 -0.265625 -1.046875 -0.265625q-0.875 0 -1.25 0.234375q-0.25 0.171875 -0.25 0.453125q0 0.234375 0.21875 0.390625q0.296875 0.21875 2.046875 0.625q1.765625 0.390625 2.453125 0.96875q0.6875 0.59375 0.6875 1.640625q0 1.140625 -0.953125 1.96875q-0.953125 0.8125 -2.8125 0.8125q-1.703125 0 -2.6875 -0.6875q-0.984375 -0.6875 -1.296875 -1.875z" fill-rule="nonzero"/><path fill="#000000" fill-opacity="0.0" d="m604.8477 22.38116l0 0c0.001953125 0 0.0036010742 0.0016174316 0.0036010742 0.003610611l-0.0036010742 433.38223c0 9.460449E-4 -3.6621094E-4 0.0018615723 -0.0010986328 0.002532959c-6.713867E-4 7.019043E-4 -0.0015869141 0.0010681152 -0.0025024414 0.0010681152l-126.012146 -0.0036010742c-0.0020141602 0 -0.0036315918 -0.0016174316 -0.0036315918 -0.0036315918l0.0036315918 -433.3822l0 0c0 -0.0019950867 0.0016174316 -0.0036125183 0.0036010742 -0.0036125183z" fill-rule="evenodd"/><path stroke="#434343" stroke-width="2.0" stroke-linejoin="round" stroke-linecap="butt" d="m604.8477 22.38116l0 0c0.001953125 0 0.0036010742 0.0016174316 0.0036010742 0.003610611l-0.0036010742 433.38223c0 9.460449E-4 -3.6621094E-4 0.0018615723 -0.0010986328 0.002532959c-6.713867E-4 7.019043E-4 -0.0015869141 0.0010681152 -0.0025024414 0.0010681152l-126.012146 -0.0036010742c-0.0020141602 0 -0.0036315918 -0.0016174316 -0.0036315918 -0.0036315918l0.0036315918 -433.3822l0 0c0 -0.0019950867 0.0016174316 -0.0036125183 0.0036010742 -0.0036125183z" fill-rule="evenodd"/><path fill="#000000" fill-opacity="0.0" d="m513.8136 77.98483l0 337.95276l-42.015747 0l0 -337.95276z" fill-rule="evenodd"/><path fill="#000000" d="m486.8936 98.15973l13.359375 0l0 9.90625l-2.265625 0l0 -7.21875l-2.953125 0l0 6.71875l-2.25 0l0 -6.71875l-3.640625 0l0 7.46875l-2.25 0l0 -10.15625zm4.34375 11.756073l0.25 2.625q-1.3125 0.234375 -1.9375 0.953125q-0.609375 0.734375 -0.609375 1.96875q0 1.296875 0.546875 1.953125q0.546875 0.671875 1.28125 0.671875q0.484375 0 0.8125 -0.28125q0.328125 -0.28125 0.578125 -0.96875q0.15625 -0.484375 0.578125 -2.171875q0.546875 -2.15625 1.328125 -3.03125q1.09375 -1.234375 2.6875 -1.234375q1.015625 0 1.90625 0.578125q0.890625 0.578125 1.34375 1.65625q0.46875 1.09375 0.46875 2.640625q0 2.515625 -1.109375 3.78125q-1.09375 1.28125 -2.9375 1.34375l-0.109375 -2.703125q1.03125 -0.171875 1.46875 -0.75q0.453125 -0.5625 0.453125 -1.703125q0 -1.171875 -0.46875 -1.84375q-0.3125 -0.421875 -0.84375 -0.421875q-0.46875 0 -0.796875 0.40625q-0.4375 0.5 -0.90625 2.46875q-0.453125 1.96875 -0.953125 2.90625q-0.5 0.953125 -1.359375 1.484375q-0.859375 0.53125 -2.125 0.53125q-1.15625 0 -2.15625 -0.640625q-1.0 -0.640625 -1.484375 -1.8125q-0.484375 -1.15625 -0.484375 -2.890625q0 -2.53125 1.171875 -3.890625q1.171875 -1.359375 3.40625 -1.625zm-4.34375 13.131073l13.359375 0l0 4.328125q0 2.453125 -0.203125 3.203125q-0.296875 1.140625 -1.3125 1.921875q-1.0 0.78125 -2.59375 0.78125q-1.234375 0 -2.078125 -0.453125q-0.828125 -0.453125 -1.3125 -1.140625q-0.46875 -0.6875 -0.625 -1.390625q-0.203125 -0.96875 -0.203125 -2.796875l0 -1.765625l-5.03125 0l0 -2.6875zm11.09375 2.6875l-3.78125 0l0 1.484375q0 1.59375 0.203125 2.125q0.203125 0.546875 0.65625 0.84375q0.453125 0.3125 1.03125 0.3125q0.734375 0 1.203125 -0.4375q0.484375 -0.421875 0.59375 -1.078125q0.09375 -0.484375 0.09375 -1.9375l0 -1.3125zm-11.09375 14.524017l13.359375 0l0 2.6875l-13.359375 0l0 -2.6875zm6.59375 4.714554q2.046875 0 3.421875 0.609375q1.03125 0.453125 1.828125 1.234375q0.8125 0.796875 1.203125 1.734375q0.53125 1.25 0.53125 2.875q0 2.953125 -1.828125 4.71875q-1.828125 1.78125 -5.09375 1.78125q-3.234375 0 -5.0625 -1.765625q-1.828125 -1.75 -1.828125 -4.6875q0 -2.984375 1.8125 -4.75q1.828125 -1.75 5.015625 -1.75zm0.09375 2.78125q-2.265625 0 -3.4375 1.046875q-1.171875 1.046875 -1.171875 2.65625q0 1.609375 1.15625 2.640625q1.171875 1.046875 3.484375 1.046875q2.296875 0 3.421875 -1.015625q1.140625 -1.0 1.140625 -2.671875q0 -1.671875 -1.15625 -2.6875q-1.140625 -1.015625 -3.4375 -1.015625zm-6.6875 15.277054l11.09375 0l0 -3.953125l2.265625 0l0 10.609375l-2.265625 0l0 -3.953125l-11.09375 0l0 -2.703125zm13.359375 13.56366l0 4.9375q0 1.65625 -0.265625 2.53125q-0.34375 1.1875 -1.234375 2.015625q-0.875 0.84375 -2.15625 1.28125q-1.28125 0.4375 -3.15625 0.4375q-1.640625 0 -2.84375 -0.40625q-1.453125 -0.5 -2.359375 -1.4375q-0.671875 -0.703125 -1.0625 -1.890625q-0.28125 -0.890625 -0.28125 -2.390625l0 -5.078125l13.359375 0zm-2.265625 2.703125l-8.84375 0l0 2.015625q0 1.125 0.125 1.625q0.171875 0.65625 0.5625 1.078125q0.390625 0.4375 1.28125 0.703125q0.90625 0.28125 2.453125 0.28125q1.546875 0 2.375 -0.28125q0.828125 -0.265625 1.28125 -0.765625q0.46875 -0.484375 0.640625 -1.234375q0.125 -0.5625 0.125 -2.21875l0 -1.203125zm-8.015625 16.363571l-0.421875 2.546875q-1.40625 -0.484375 -2.140625 -1.546875q-0.734375 -1.0625 -0.734375 -2.65625q0 -2.515625 1.65625 -3.734375q1.3125 -0.953125 3.328125 -0.953125q2.40625 0 3.765625 1.25q1.359375 1.265625 1.359375 3.1875q0 2.15625 -1.421875 3.40625q-1.421875 1.25 -4.375 1.1875l0 -6.40625q-1.140625 0.03125 -1.78125 0.609375q-0.625 0.59375 -0.625 1.484375q0 0.59375 0.328125 1.0q0.328125 0.421875 1.0625 0.625zm2.59375 0.15625q1.109375 -0.03125 1.6875 -0.578125q0.578125 -0.546875 0.578125 -1.328125q0 -0.84375 -0.609375 -1.390625q-0.609375 -0.546875 -1.65625 -0.53125l0 3.828125zm-5.671875 7.281967l9.671875 -3.90625l0 2.6875l-4.9375 1.828125l-1.640625 0.53125q0.625 0.203125 0.828125 0.265625q0.40625 0.125 0.8125 0.265625l4.9375 1.84375l0 2.625l-9.671875 -3.84375l0 -2.296875zm3.078125 13.313217l-0.421875 2.546875q-1.40625 -0.484375 -2.140625 -1.546875q-0.734375 -1.0625 -0.734375 -2.65625q0 -2.515625 1.65625 -3.734375q1.3125 -0.953125 3.328125 -0.953125q2.40625 0 3.765625 1.25q1.359375 1.265625 1.359375 3.1875q0 2.15625 -1.421875 3.40625q-1.421875 1.25 -4.375 1.1875l0 -6.40625q-1.140625 0.03125 -1.78125 0.609375q-0.625 0.59375 -0.625 1.484375q0 0.59375 0.328125 1.0q0.328125 0.421875 1.0625 0.625zm2.59375 0.15625q1.109375 -0.03125 1.6875 -0.578125q0.578125 -0.546875 0.578125 -1.328125q0 -0.84375 -0.609375 -1.390625q-0.609375 -0.546875 -1.65625 -0.53125l0 3.828125zm-5.671875 4.625717l13.359375 0l0 2.5625l-13.359375 0l0 -2.5625zm4.96875 4.589554q1.28125 0 2.46875 0.625q1.203125 0.625 1.828125 1.78125q0.625 1.15625 0.625 2.578125q0 2.1875 -1.421875 3.59375q-1.421875 1.40625 -3.609375 1.40625q-2.1875 0 -3.640625 -1.421875q-1.4375 -1.421875 -1.4375 -3.5625q0 -1.328125 0.59375 -2.546875q0.609375 -1.203125 1.765625 -1.828125q1.171875 -0.625 2.828125 -0.625zm-0.125 2.625q-1.453125 0 -2.21875 0.671875q-0.75 0.6875 -0.75 1.6875q0 1.0 0.75 1.671875q0.765625 0.6875 2.234375 0.6875q1.421875 0 2.1875 -0.6875q0.765625 -0.671875 0.765625 -1.671875q0 -1.0 -0.765625 -1.6875q-0.765625 -0.671875 -2.203125 -0.671875zm4.828125 9.286606l0 2.390625l-1.421875 0q0.734375 0.46875 1.1875 1.25q0.453125 0.796875 0.453125 1.765625q0 1.6875 -1.328125 2.859375q-1.3125 1.171875 -3.671875 1.171875q-2.421875 0 -3.765625 -1.1875q-1.34375 -1.1875 -1.34375 -2.859375q0 -0.8125 0.3125 -1.46875q0.328125 -0.640625 1.09375 -1.359375l-4.875 0l0 -2.5625l13.359375 0zm-4.671875 2.53125q-1.625 0 -2.40625 0.640625q-0.78125 0.65625 -0.78125 1.578125q0 0.90625 0.71875 1.484375q0.71875 0.59375 2.34375 0.59375q1.515625 0 2.25 -0.609375q0.75 -0.609375 0.75 -1.515625q0 -0.9375 -0.734375 -1.5625q-0.71875 -0.609375 -2.140625 -0.609375zm4.671875 8.739731l0 2.359375l-1.3125 0q1.53125 1.265625 1.53125 3.015625q0 0.9375 -0.390625 1.609375q-0.375 0.68751526 -1.140625 1.1250153q0.765625 0.640625 1.140625 1.375q0.390625 0.75 0.390625 1.578125q0 1.0625 -0.4375 1.796875q-0.421875 0.75 -1.265625 1.109375q-0.625 0.265625 -2.0 0.265625l-6.1875 0l0 -2.5625l5.53125 0q1.4375 0 1.859375 -0.265625q0.546875 -0.34375 0.546875 -1.09375q0 -0.53125 -0.328125 -1.015625q-0.328125 -0.46875 -0.96875 -0.671875q-0.625 -0.203125 -2.0 -0.203125l-4.640625 0l0 -2.5625153l5.296875 0q1.421875 0 1.828125 -0.140625q0.40625 -0.140625 0.609375 -0.421875q0.203125 -0.28125 0.203125 -0.78125q0 -0.59375 -0.328125 -1.0625q-0.3125 -0.46875 -0.921875 -0.6875q-0.59375 -0.203125 -1.984375 -0.203125l-4.703125 0l0 -2.5625l9.671875 0zm-6.59375 22.38527l-0.421875 2.546875q-1.40625 -0.484375 -2.140625 -1.546875q-0.734375 -1.0625 -0.734375 -2.65625q0 -2.515625 1.65625 -3.734375q1.3125 -0.953125 3.328125 -0.953125q2.40625 0 3.765625 1.25q1.359375 1.265625 1.359375 3.1875q0 2.15625 -1.421875 3.40625q-1.421875 1.25 -4.375 1.1875l0 -6.40625q-1.140625 0.03125 -1.78125 0.609375q-0.625 0.59375 -0.625 1.484375q0 0.59375 0.328125 1.0q0.328125 0.421875 1.0625 0.625zm2.59375 0.15625q1.109375 -0.03125 1.6875 -0.578125q0.578125 -0.546875 0.578125 -1.328125q0 -0.84375 -0.609375 -1.390625q-0.609375 -0.546875 -1.65625 -0.53125l0 3.828125zm-5.671875 13.422607l0 -2.5625l4.9375 0q1.5625 0 2.015625 -0.171875q0.46875 -0.15625 0.71875 -0.53125q0.265625 -0.359375 0.265625 -0.875q0 -0.671875 -0.375 -1.203125q-0.359375 -0.53125 -0.96875 -0.734375q-0.59375 -0.1875 -2.21875 -0.1875l-4.375 0l0 -2.546875l9.671875 0l0 2.375l-1.421875 0q1.640625 1.265625 1.640625 3.1875q0 0.84375 -0.3125 1.546875q-0.296875 0.703125 -0.78125 1.0625q-0.46875 0.359375 -1.078125 0.5q-0.59375 0.140625 -1.703125 0.140625l-6.015625 0zm9.671875 7.0365906l-2.03125 0l0 -1.75l-3.90625 0q-1.1875 0 -1.390625 0.046875q-0.1875 0.046875 -0.3125 0.21875q-0.125 0.1875 -0.125 0.4375q0 0.359375 0.25 1.03125l-2.0 0.21875q-0.375 -0.890625 -0.375 -2.015625q0 -0.703125 0.234375 -1.265625q0.234375 -0.546875 0.59375 -0.8125q0.375 -0.25 1.0 -0.34375q0.453125 -0.09375 1.8125 -0.09375l4.21875 0l0 -1.171875l2.03125 0l0 1.171875l1.921875 0l1.5 2.578125l-3.421875 0l0 1.75zm-9.671875 6.989746l13.359375 0l0 9.15625l-2.265625 0l0 -6.453125l-3.15625 0l0 5.5625l-2.265625 0l0 -5.5625l-5.671875 0l0 -2.703125zm0 13.817841l0 -2.5625l9.671875 0l0 2.375l-1.375 0q0.984375 0.609375 1.28125 1.09375q0.3125 0.484375 0.3125 1.109375q0 0.875 -0.484375 1.6875l-2.234375 -0.796875q0.421875 -0.640625 0.421875 -1.203125q0 -0.53125 -0.296875 -0.90625q-0.296875 -0.375 -1.078125 -0.59375q-0.765625 -0.203125 -3.234375 -0.203125l-2.984375 0zm6.71875 6.7134094l0.421875 -2.328125q1.40625 0.40625 2.078125 1.359375q0.671875 0.953125 0.671875 2.84375q0 1.703125 -0.40625 2.546875q-0.40625 0.84375 -1.03125 1.171875q-0.625 0.34375 -2.28125 0.34375l-3.0 -0.015625q-1.265625 0 -1.875 0.109375q-0.609375 0.125 -1.296875 0.46875l0 -2.53125q0.25 -0.109375 0.75 -0.25q0.234375 -0.0625 0.3125 -0.09375q-0.640625 -0.65625 -0.96875 -1.40625q-0.3125 -0.734375 -0.3125 -1.59375q0 -1.484375 0.8125 -2.34375q0.8125 -0.859375 2.046875 -0.859375q0.828125 0 1.46875 0.390625q0.640625 0.390625 0.96875 1.09375q0.34375 0.703125 0.609375 2.03125q0.328125 1.796875 0.625 2.484375l0.25 0q0.75 0 1.0625 -0.359375q0.3125 -0.359375 0.3125 -1.375q0 -0.6875 -0.28125 -1.078125q-0.265625 -0.375 -0.9375 -0.609375zm-2.078125 3.421875q-0.15625 -0.484375 -0.390625 -1.5625q-0.21875 -1.0625 -0.4375 -1.390625q-0.359375 -0.5 -0.90625 -0.5q-0.53125 0 -0.9375 0.40625q-0.390625 0.40625 -0.390625 1.015625q0 0.703125 0.46875 1.328125q0.34375 0.46875 0.84375 0.609375q0.328125 0.09375 1.25 0.09375l0.5 0zm5.03125 4.844452l0 2.359375l-1.3125 0q1.53125 1.265625 1.53125 3.015625q0 0.9375 -0.390625 1.609375q-0.375 0.6875 -1.140625 1.125q0.765625 0.640625 1.140625 1.375q0.390625 0.75 0.390625 1.578125q0 1.0625 -0.4375 1.796875q-0.421875 0.75 -1.265625 1.109375q-0.625 0.265625 -2.0 0.265625l-6.1875 0l0 -2.5625l5.53125 0q1.4375 0 1.859375 -0.265625q0.546875 -0.34375 0.546875 -1.09375q0 -0.53125 -0.328125 -1.015625q-0.328125 -0.46875 -0.96875 -0.671875q-0.625 -0.203125 -2.0 -0.203125l-4.640625 0l0 -2.5625l5.296875 0q1.421875 0 1.828125 -0.140625q0.40625 -0.140625 0.609375 -0.421875q0.203125 -0.28125 0.203125 -0.78125q0 -0.59375 -0.328125 -1.0625q-0.3125 -0.46875 -0.921875 -0.6875q-0.59375 -0.203125 -1.984375 -0.203125l-4.703125 0l0 -2.5625l9.671875 0zm-6.59375 22.385284l-0.421875 2.546875q-1.40625 -0.484375 -2.140625 -1.546875q-0.734375 -1.0625 -0.734375 -2.65625q0 -2.515625 1.65625 -3.734375q1.3125 -0.953125 3.328125 -0.953125q2.40625 0 3.765625 1.25q1.359375 1.265625 1.359375 3.1875q0 2.15625 -1.421875 3.40625q-1.421875 1.25 -4.375 1.1875l0 -6.40625q-1.140625 0.03125 -1.78125 0.609375q-0.625 0.59375 -0.625 1.484375q0 0.59375 0.328125 1.0q0.328125 0.421875 1.0625 0.625zm2.59375 0.15625q1.109375 -0.03125 1.6875 -0.578125q0.578125 -0.546875 0.578125 -1.328125q0 -0.84375 -0.609375 -1.390625q-0.609375 -0.546875 -1.65625 -0.53125l0 3.828125zm-5.671875 6.422577l9.671875 -3.0625l0 2.484375l-6.34375 1.8125l6.34375 1.671875l0 2.46875l-6.34375 1.609375l6.34375 1.859375l0 2.515625l-9.671875 -3.109375l0 -2.453125l6.21875 -1.671875l-6.21875 -1.640625l0 -2.484375zm4.96875 12.120789q1.28125 0 2.46875 0.625q1.203125 0.625 1.828125 1.78125q0.625 1.15625 0.625 2.578125q0 2.1875 -1.421875 3.59375q-1.421875 1.40625 -3.609375 1.40625q-2.1875 0 -3.640625 -1.421875q-1.4375 -1.421875 -1.4375 -3.5625q0 -1.328125 0.59375 -2.546875q0.609375 -1.203125 1.765625 -1.828125q1.171875 -0.625 2.828125 -0.625zm-0.125 2.625q-1.453125 0 -2.21875 0.671875q-0.75 0.6875 -0.75 1.6875q0 1.0 0.75 1.671875q0.765625 0.6875 2.234375 0.6875q1.421875 0 2.1875 -0.6875q0.765625 -0.671875 0.765625 -1.671875q0 -1.0 -0.765625 -1.6875q-0.765625 -0.671875 -2.203125 -0.671875zm-4.84375 11.817871l0 -2.5625l9.671875 0l0 2.375l-1.375 0q0.984375 0.609375 1.28125 1.09375q0.3125 0.484375 0.3125 1.109375q0 0.875 -0.484375 1.6875l-2.234375 -0.796875q0.421875 -0.640625 0.421875 -1.203125q0 -0.53125 -0.296875 -0.90625q-0.296875 -0.375 -1.078125 -0.59375q-0.765625 -0.203125 -3.234375 -0.203125l-2.984375 0zm0 4.713379l13.359375 0l0 2.5625l-7.09375 0l3.40625 3.0l0 3.140625l-3.53125 -3.296875l-6.140625 3.53125l0 -2.75l4.34375 -2.4375l-1.25 -1.1875l-3.09375 0l0 -2.5625z" fill-rule="nonzero"/><path fill="#cfe2f3" d="m215.41966 245.92447l19.385818 -19.385834l0 9.692917l26.141724 0l0 -9.692917l19.385834 19.385834l-19.385834 19.385834l0 -9.692917l-26.141724 0l0 9.692917z" fill-rule="evenodd"/><path stroke="#000000" stroke-width="1.0" stroke-linejoin="round" stroke-linecap="butt" d="m215.41966 245.92447l19.385818 -19.385834l0 9.692917l26.141724 0l0 -9.692917l19.385834 19.385834l-19.385834 19.385834l0 -9.692917l-26.141724 0l0 9.692917z" fill-rule="evenodd"/><path fill="#cfe2f3" d="m409.76874 245.92447l19.385834 -19.385834l0 9.692917l29.606293 0l0 -9.692917l19.385834 19.385834l-19.385834 19.385834l0 -9.692917l-29.606293 0l0 9.692917z" fill-rule="evenodd"/><path stroke="#000000" stroke-width="1.0" stroke-linejoin="round" stroke-linecap="butt" d="m409.76874 245.92447l19.385834 -19.385834l0 9.692917l29.606293 0l0 -9.692917l19.385834 19.385834l-19.385834 19.385834l0 -9.692917l-29.606293 0l0 9.692917z" fill-rule="evenodd"/><path fill="#000000" fill-opacity="0.0" d="m74.94761 216.30516l151.65353 0l0 54.929123l-151.65353 0z" fill-rule="evenodd"/><path fill="#000000" d="m91.87519 239.38516l0 -7.59375l1.15625 0l0 1.140625q0.453125 -0.796875 0.828125 -1.046875q0.375 -0.265625 0.8125 -0.265625q0.65625 0 1.328125 0.40625l-0.4375 1.203125q-0.46875 -0.28125 -0.953125 -0.28125q-0.421875 0 -0.765625 0.25q-0.328125 0.25 -0.46875 0.703125q-0.21875 0.6875 -0.21875 1.5l0 3.984375l-1.28125 0zm10.099396 -2.453125l1.328125 0.171875q-0.3125 1.171875 -1.171875 1.8125q-0.84375 0.640625 -2.171875 0.640625q-1.671875 0 -2.65625 -1.015625q-0.96875 -1.03125 -0.96875 -2.890625q0 -1.921875 0.984375 -2.96875q1.0 -1.0625 2.578125 -1.0625q1.515625 0 2.484375 1.03125q0.96875 1.03125 0.96875 2.921875q0 0.109375 -0.015625 0.34375l-5.65625 0q0.0625 1.25 0.703125 1.921875q0.640625 0.65625 1.59375 0.65625q0.703125 0 1.203125 -0.359375q0.5 -0.375 0.796875 -1.203125zm-4.234375 -2.078125l4.25 0q-0.09375 -0.953125 -0.484375 -1.4375q-0.625 -0.75 -1.609375 -0.75q-0.875 0 -1.484375 0.59375q-0.609375 0.59375 -0.671875 1.59375zm6.666733 2.265625l1.265625 -0.203125q0.109375 0.765625 0.59375 1.171875q0.5 0.40625 1.375 0.40625q0.890625 0 1.3125 -0.359375q0.4375 -0.359375 0.4375 -0.84375q0 -0.4375 -0.375 -0.6875q-0.265625 -0.171875 -1.3125 -0.4375q-1.421875 -0.359375 -1.96875 -0.609375q-0.546875 -0.265625 -0.828125 -0.734375q-0.28125 -0.46875 -0.28125 -1.015625q0 -0.515625 0.21875 -0.9375q0.234375 -0.4375 0.640625 -0.734375q0.296875 -0.21875 0.8125 -0.359375q0.53125 -0.15625 1.125 -0.15625q0.890625 0 1.5625 0.265625q0.671875 0.25 1.0 0.6875q0.328125 0.4375 0.4375 1.171875l-1.25 0.171875q-0.09375 -0.578125 -0.5 -0.90625q-0.40625 -0.34375 -1.15625 -0.34375q-0.890625 0 -1.28125 0.296875q-0.375 0.296875 -0.375 0.6875q0 0.25 0.15625 0.453125q0.15625 0.203125 0.5 0.34375q0.1875 0.078125 1.140625 0.328125q1.359375 0.359375 1.890625 0.59375q0.546875 0.234375 0.859375 0.6875q0.3125 0.4375 0.3125 1.09375q0 0.640625 -0.375 1.21875q-0.375 0.5625 -1.09375 0.875q-0.703125 0.3125 -1.59375 0.3125q-1.484375 0 -2.265625 -0.609375q-0.765625 -0.625 -0.984375 -1.828125zm10.65625 1.109375l0.1875 1.140625q-0.546875 0.109375 -0.984375 0.109375q-0.6875 0 -1.078125 -0.21875q-0.390625 -0.21875 -0.546875 -0.578125q-0.15625 -0.359375 -0.15625 -1.515625l0 -4.375l-0.953125 0l0 -1.0l0.953125 0l0 -1.890625l1.28125 -0.765625l0 2.65625l1.296875 0l0 1.0l-1.296875 0l0 4.4375q0 0.546875 0.0625 0.71875q0.078125 0.15625 0.21875 0.25q0.15625 0.078125 0.453125 0.078125q0.203125 0 0.5625 -0.046875zm0.7751007 -2.640625q0 -2.109375 1.171875 -3.125q0.984375 -0.84375 2.390625 -0.84375q1.578125 0 2.5625 1.03125q1.0 1.015625 1.0 2.828125q0 1.46875 -0.4375 2.3125q-0.4375 0.828125 -1.28125 1.296875q-0.84375 0.46875 -1.84375 0.46875q-1.59375 0 -2.578125 -1.015625q-0.984375 -1.03125 -0.984375 -2.953125zm1.328125 0q0 1.453125 0.625 2.1875q0.640625 0.71875 1.609375 0.71875q0.96875 0 1.59375 -0.71875q0.640625 -0.734375 0.640625 -2.234375q0 -1.40625 -0.640625 -2.125q-0.640625 -0.734375 -1.59375 -0.734375q-0.96875 0 -1.609375 0.71875q-0.625 0.71875 -0.625 2.1875zm7.291733 3.796875l0 -7.59375l1.15625 0l0 1.140625q0.453125 -0.796875 0.828125 -1.046875q0.375 -0.265625 0.8125 -0.265625q0.65625 0 1.3281326 0.40625l-0.4375 1.203125q-0.46875763 -0.28125 -0.9531326 -0.28125q-0.421875 0 -0.765625 0.25q-0.328125 0.25 -0.46875 0.703125q-0.21875 0.6875 -0.21875 1.5l0 3.984375l-1.28125 0zm10.099403 -2.453125l1.328125 0.171875q-0.3125 1.171875 -1.171875 1.8125q-0.84375 0.640625 -2.171875 0.640625q-1.671875 0 -2.65625 -1.015625q-0.96875 -1.03125 -0.96875 -2.890625q0 -1.921875 0.984375 -2.96875q1.0 -1.0625 2.578125 -1.0625q1.515625 0 2.484375 1.03125q0.96875 1.03125 0.96875 2.921875q0 0.109375 -0.015625 0.34375l-5.65625 0q0.0625 1.25 0.703125 1.921875q0.640625 0.65625 1.59375 0.65625q0.703125 0 1.203125 -0.359375q0.5 -0.375 0.796875 -1.203125zm-4.234375 -2.078125l4.25 0q-0.09375 -0.953125 -0.484375 -1.4375q-0.625 -0.75 -1.609375 -0.75q-0.875 0 -1.484375 0.59375q-0.609375 0.59375 -0.671875 1.59375zm7.416733 4.53125l0 -10.484375l7.078125 0l0 1.234375l-5.6875 0l0 3.25l4.921875 0l0 1.234375l-4.921875 0l0 4.765625l-1.390625 0zm8.702621 0l0 -7.59375l1.15625 0l0 1.140625q0.453125 -0.796875 0.828125 -1.046875q0.375 -0.265625 0.8125 -0.265625q0.65625 0 1.328125 0.40625l-0.4375 1.203125q-0.46875 -0.28125 -0.953125 -0.28125q-0.421875 0 -0.765625 0.25q-0.328125 0.25 -0.46875 0.703125q-0.21875 0.6875 -0.21875 1.5l0 3.984375l-1.28125 0zm4.4118958 -3.796875q0 -2.109375 1.171875 -3.125q0.984375 -0.84375 2.390625 -0.84375q1.578125 0 2.5625 1.03125q1.0 1.015625 1.0 2.828125q0 1.46875 -0.4375 2.3125q-0.4375 0.828125 -1.28125 1.296875q-0.84375 0.46875 -1.84375 0.46875q-1.59375 0 -2.578125 -1.015625q-0.984375 -1.03125 -0.984375 -2.953125zm1.328125 0q0 1.453125 0.625 2.1875q0.640625 0.71875 1.609375 0.71875q0.96875 0 1.59375 -0.71875q0.640625 -0.734375 0.640625 -2.234375q0 -1.40625 -0.640625 -2.125q-0.640625 -0.734375 -1.59375 -0.734375q-0.96875 0 -1.609375 0.71875q-0.625 0.71875 -0.625 2.1875zm7.307358 3.796875l0 -7.59375l1.15625 0l0 1.0625q0.34375 -0.5625 0.9375 -0.890625q0.609375 -0.34375 1.359375 -0.34375q0.84375 0 1.375 0.34375q0.546875 0.34375 0.765625 0.984375q0.90625 -1.328125 2.359375 -1.328125q1.125 0 1.734375 0.625q0.609375 0.625 0.609375 1.921875l0 5.21875l-1.28125 0l0 -4.78125q0 -0.78125 -0.125 -1.109375q-0.125 -0.34375 -0.453125 -0.546875q-0.328125 -0.21875 -0.78125 -0.21875q-0.796875 0 -1.328125 0.53125q-0.53125 0.53125 -0.53125 1.703125l0 4.421875l-1.28125 0l0 -4.9375q0 -0.859375 -0.3125 -1.28125q-0.3125 -0.4375 -1.03125 -0.4375q-0.546875 0 -1.015625 0.296875q-0.453125 0.28125 -0.671875 0.828125q-0.203125 0.546875 -0.203125 1.59375l0 3.9375l-1.28125 0zm12.349396 0l0 -10.484375l1.4375 0l5.5 8.234375l0 -8.234375l1.328125 0l0 10.484375l-1.421875 0l-5.5 -8.25l0 8.25l-1.34375 0zm13.599899 0l-4.0625 -10.484375l1.5 0l2.734375 7.609375q0.328125 0.921875 0.546875 1.71875q0.25 -0.859375 0.5625 -1.71875l2.84375 -7.609375l1.40625 0l-4.109375 10.484375l-1.421875 0zm6.3068542 -3.375l1.3125 -0.109375q0.09375 0.78125 0.421875 1.296875q0.34375 0.5 1.0625 0.8125q0.71875 0.3125 1.609375 0.3125q0.796875 0 1.40625 -0.234375q0.609375 -0.234375 0.90625 -0.640625q0.296875 -0.421875 0.296875 -0.90625q0 -0.5 -0.296875 -0.859375q-0.28125 -0.375 -0.9375 -0.625q-0.421875 -0.171875 -1.875 -0.515625q-1.4375 -0.34375 -2.015625 -0.65625q-0.75 -0.390625 -1.125 -0.96875q-0.359375 -0.59375 -0.359375 -1.3125q0 -0.796875 0.4375 -1.484375q0.453125 -0.6875 1.3125 -1.046875q0.875 -0.359375 1.9375 -0.359375q1.171875 0 2.0625 0.375q0.890625 0.375 1.359375 1.109375q0.484375 0.734375 0.515625 1.65625l-1.328125 0.09375q-0.109375 -1.0 -0.734375 -1.5q-0.609375 -0.515625 -1.8125 -0.515625q-1.265625 0 -1.84375 0.46875q-0.578125 0.46875 -0.578125 1.109375q0 0.5625 0.421875 0.9375q0.390625 0.359375 2.078125 0.75q1.703125 0.375 2.328125 0.65625q0.921875 0.421875 1.359375 1.078125q0.4375 0.640625 0.4375 1.484375q0 0.84375 -0.484375 1.59375q-0.484375 0.734375 -1.390625 1.140625q-0.890625 0.40625 -2.015625 0.40625q-1.421875 0 -2.390625 -0.40625q-0.953125 -0.421875 -1.5 -1.25q-0.546875 -0.828125 -0.578125 -1.890625zm12.541229 6.453125q-1.0625 -1.34375 -1.796875 -3.140625q-0.734375 -1.8125 -0.734375 -3.734375q0 -1.703125 0.546875 -3.265625q0.640625 -1.8125 1.984375 -3.609375l0.921875 0q-0.859375 1.484375 -1.140625 2.125q-0.4375 0.984375 -0.6875 2.0625q-0.296875 1.34375 -0.296875 2.6875q0 3.453125 2.125 6.875l-0.921875 0zm3.2712708 0l-0.921875 0q2.140625 -3.421875 2.140625 -6.875q0 -1.34375 -0.3125 -2.671875q-0.25 -1.0625 -0.671875 -2.046875q-0.28125 -0.65625 -1.15625 -2.15625l0.921875 0q1.34375 1.796875 1.984375 3.609375q0.546875 1.5625 0.546875 3.265625q0 1.921875 -0.734375 3.734375q-0.734375 1.796875 -1.796875 3.140625z" fill-rule="nonzero"/><path fill="#000000" d="m108.06085 254.71953l1.265625 -0.203125q0.109375 0.765625 0.59375 1.171875q0.5 0.40626526 1.375 0.40626526q0.890625 0 1.3125 -0.35939026q0.4375 -0.359375 0.4375 -0.84375q0 -0.4375 -0.375 -0.6875q-0.265625 -0.171875 -1.3125 -0.4375q-1.421875 -0.359375 -1.96875 -0.609375q-0.546875 -0.265625 -0.828125 -0.734375q-0.28125 -0.46875 -0.28125 -1.015625q0 -0.515625 0.21875 -0.9375q0.234375 -0.4375 0.640625 -0.734375q0.296875 -0.21875 0.8125 -0.359375q0.53125 -0.15625 1.125 -0.15625q0.890625 0 1.5625 0.265625q0.671875 0.25 1.0 0.6875q0.328125 0.4375 0.4375 1.171875l-1.25 0.171875q-0.09375 -0.578125 -0.5 -0.90625q-0.40625 -0.34375 -1.15625 -0.34375q-0.890625 0 -1.28125 0.296875q-0.375 0.296875 -0.375 0.6875q0 0.25 0.15625 0.453125q0.15625 0.203125 0.5 0.34375q0.1875 0.078125 1.140625 0.328125q1.359375 0.359375 1.890625 0.59375q0.546875 0.234375 0.859375 0.6875q0.3125 0.4375 0.3125 1.09375q0 0.640625 -0.375 1.21875q-0.375 0.56251526 -1.09375 0.87501526q-0.703125 0.3125 -1.59375 0.3125q-1.484375 0 -2.265625 -0.609375q-0.765625 -0.62501526 -0.984375 -1.8281403zm12.796875 1.3281403q-0.71875 0.609375 -1.375 0.859375q-0.65625 0.25 -1.421875 0.25q-1.25 0 -1.921875 -0.609375q-0.671875 -0.60939026 -0.671875 -1.5625153q0 -0.5625 0.25 -1.015625q0.25 -0.46875 0.65625 -0.75q0.421875 -0.28125 0.9375 -0.421875q0.375 -0.09375 1.140625 -0.1875q1.5625 -0.1875 2.296875 -0.453125q0.015625 -0.265625 0.015625 -0.328125q0 -0.796875 -0.375 -1.109375q-0.484375 -0.4375 -1.453125 -0.4375q-0.921875 0 -1.359375 0.328125q-0.421875 0.3125 -0.625 1.109375l-1.265625 -0.171875q0.171875 -0.796875 0.5625 -1.296875q0.390625 -0.5 1.140625 -0.765625q0.75 -0.265625 1.71875 -0.265625q0.984375 0 1.59375 0.234375q0.609375 0.21875 0.890625 0.5625q0.28125 0.34375 0.40625 0.875q0.0625 0.328125 0.0625 1.1875l0 1.71875q0 1.796875 0.078125 2.2812653q0.078125 0.46875 0.328125 0.90625l-1.34375 0q-0.203125 -0.40625 -0.265625 -0.9375zm-0.109375 -2.8750153q-0.703125 0.28125 -2.09375 0.484375q-0.796875 0.109375 -1.125 0.265625q-0.328125 0.140625 -0.515625 0.421875q-0.171875 0.265625 -0.171875 0.59375q0 0.515625 0.390625 0.859375q0.390625 0.34376526 1.140625 0.34376526q0.734375 0 1.3125 -0.31251526q0.59375 -0.328125 0.859375 -0.890625q0.203125 -0.4375 0.203125 -1.296875l0 -0.46875zm5.416733 3.8125153l-2.890625 -7.5937653l1.359375 0l1.625 4.546875q0.265625 0.734375 0.5 1.53125q0.15625 -0.609375 0.46875 -1.453125l1.6875 -4.625l1.328125 0l-2.875 7.5937653l-1.203125 0zm10.421875 -2.4531403l1.328125 0.171875q-0.3125 1.171875 -1.171875 1.8125153q-0.84375 0.640625 -2.171875 0.640625q-1.671875 0 -2.65625 -1.015625q-0.96875 -1.0312653 -0.96875 -2.8906403q0 -1.921875 0.984375 -2.96875q1.0 -1.0625 2.578125 -1.0625q1.515625 0 2.484375 1.03125q0.96875 1.03125 0.96875 2.921875q0 0.109375 -0.015625 0.34375l-5.65625 0q0.0625 1.25 0.703125 1.921875q0.640625 0.65626526 1.59375 0.65626526q0.703125 0 1.203125 -0.35939026q0.5 -0.375 0.796875 -1.203125zm-4.234375 -2.078125l4.25 0q-0.09375 -0.953125 -0.484375 -1.4375q-0.625 -0.75 -1.609375 -0.75q-0.875 0 -1.484375 0.59375q-0.609375 0.59375 -0.671875 1.59375zm10.010483 4.5312653l0 -9.250015l-3.453125 0l0 -1.234375l8.3125 0l0 1.234375l-3.46875 0l0 9.250015l-1.390625 0zm4.0144653 -3.7968903q0 -2.109375 1.171875 -3.125q0.984375 -0.84375 2.390625 -0.84375q1.578125 0 2.5625 1.03125q1.0 1.015625 1.0 2.828125q0 1.46875 -0.4375 2.3125q-0.4375 0.82814026 -1.28125 1.2968903q-0.84375 0.46875 -1.84375 0.46875q-1.59375 0 -2.578125 -1.015625q-0.984375 -1.0312653 -0.984375 -2.9531403zm1.328125 0q0 1.453125 0.625 2.1875q0.640625 0.71876526 1.609375 0.71876526q0.96875 0 1.59375 -0.71876526q0.640625 -0.734375 0.640625 -2.234375q0 -1.40625 -0.640625 -2.125q-0.640625 -0.734375 -1.59375 -0.734375q-0.96875 0 -1.609375 0.71875q-0.625 0.71875 -0.625 2.1875zm7.447983 3.7968903l0 -10.48439l1.4375 0l5.5 8.234375l0 -8.234375l1.328125 0l0 10.48439l-1.421875 0l-5.5 -8.250015l0 8.250015l-1.34375 0zm13.599899 0l-4.0625 -10.48439l1.5 0l2.734375 7.609375q0.328125 0.921875 0.546875 1.71875q0.25 -0.859375 0.5625 -1.71875l2.84375 -7.609375l1.40625 0l-4.109375 10.48439l-1.421875 0zm6.3068542 -3.3750153l1.3125 -0.109375q0.09375 0.78125 0.421875 1.296875q0.34375 0.5 1.0625 0.8125q0.71875 0.3125 1.609375 0.3125q0.796875 0 1.40625 -0.234375q0.609375 -0.234375 0.90625 -0.640625q0.296875 -0.421875 0.296875 -0.90625q0 -0.5 -0.296875 -0.859375q-0.28125 -0.375 -0.9375 -0.625q-0.421875 -0.171875 -1.875 -0.515625q-1.4375 -0.34375 -2.015625 -0.65625q-0.75 -0.390625 -1.125 -0.96875q-0.359375 -0.59375 -0.359375 -1.3125q0 -0.796875 0.4375 -1.484375q0.453125 -0.6875 1.3125 -1.046875q0.875 -0.359375 1.9375 -0.359375q1.171875 0 2.0625 0.375q0.890625 0.375 1.359375 1.109375q0.484375 0.734375 0.515625 1.65625l-1.328125 0.09375q-0.109375 -1.0 -0.734375 -1.5q-0.609375 -0.515625 -1.8125 -0.515625q-1.265625 0 -1.84375 0.46875q-0.578125 0.46875 -0.578125 1.109375q0 0.5625 0.421875 0.9375q0.390625 0.359375 2.078125 0.75q1.703125 0.375 2.328125 0.65625q0.921875 0.421875 1.359375 1.078125q0.4375 0.640625 0.4375 1.484375q0 0.84375 -0.484375 1.59375q-0.484375 0.73439026 -1.390625 1.1406403q-0.890625 0.40625 -2.015625 0.40625q-1.421875 0 -2.390625 -0.40625q-0.953125 -0.421875 -1.5 -1.2500153q-0.546875 -0.828125 -0.578125 -1.890625zm12.541229 6.4531403q-1.0625 -1.34375 -1.796875 -3.140625q-0.734375 -1.8125153 -0.734375 -3.7343903q0 -1.703125 0.546875 -3.265625q0.640625 -1.8125 1.984375 -3.609375l0.921875 0q-0.859375 1.484375 -1.140625 2.125q-0.4375 0.984375 -0.6875 2.0625q-0.296875 1.34375 -0.296875 2.6875q0 3.4531403 2.125 6.8750153l-0.921875 0zm3.2712708 0l-0.921875 0q2.140625 -3.421875 2.140625 -6.8750153q0 -1.34375 -0.3125 -2.671875q-0.25 -1.0625 -0.671875 -2.046875q-0.28125 -0.65625 -1.15625 -2.15625l0.921875 0q1.34375 1.796875 1.984375 3.609375q0.546875 1.5625 0.546875 3.265625q0 1.921875 -0.734375 3.7343903q-0.734375 1.796875 -1.796875 3.140625z" fill-rule="nonzero"/><path fill="#000000" fill-opacity="0.0" d="m287.19272 219.49664l115.71652 0l0 54.92914l-115.71652 0z" fill-rule="evenodd"/><path fill="#000000" d="m326.45648 242.57664l0 -7.59375l1.15625 0l0 1.140625q0.453125 -0.796875 0.828125 -1.046875q0.375 -0.265625 0.8125 -0.265625q0.65625 0 1.328125 0.40625l-0.4375 1.203125q-0.46875 -0.28125 -0.953125 -0.28125q-0.421875 0 -0.765625 0.25q-0.328125 0.25 -0.46875 0.703125q-0.21875 0.6875 -0.21875 1.5l0 3.984375l-1.28125 0zm10.099396 -2.453125l1.328125 0.171875q-0.3125 1.171875 -1.171875 1.8125q-0.84375 0.640625 -2.171875 0.640625q-1.671875 0 -2.65625 -1.015625q-0.96875 -1.03125 -0.96875 -2.890625q0 -1.921875 0.984375 -2.96875q1.0 -1.0625 2.578125 -1.0625q1.515625 0 2.484375 1.03125q0.96875 1.03125 0.96875 2.921875q0 0.109375 -0.015625 0.34375l-5.65625 0q0.0625 1.25 0.703125 1.921875q0.640625 0.65625 1.59375 0.65625q0.703125 0 1.203125 -0.359375q0.5 -0.375 0.796875 -1.203125zm-4.234375 -2.078125l4.25 0q-0.09375 -0.953125 -0.484375 -1.4375q-0.625 -0.75 -1.609375 -0.75q-0.875 0 -1.484375 0.59375q-0.609375 0.59375 -0.671875 1.59375zm12.135468 3.59375q-0.71875 0.609375 -1.375 0.859375q-0.65625 0.25 -1.421875 0.25q-1.25 0 -1.921875 -0.609375q-0.671875 -0.609375 -0.671875 -1.5625q0 -0.5625 0.25 -1.015625q0.25 -0.46875 0.65625 -0.75q0.421875 -0.28125 0.9375 -0.421875q0.375 -0.09375 1.140625 -0.1875q1.5625 -0.1875 2.296875 -0.453125q0.015625 -0.265625 0.015625 -0.328125q0 -0.796875 -0.375 -1.109375q-0.484375 -0.4375 -1.453125 -0.4375q-0.921875 0 -1.359375 0.328125q-0.421875 0.3125 -0.625 1.109375l-1.265625 -0.171875q0.171875 -0.796875 0.5625 -1.296875q0.390625 -0.5 1.140625 -0.765625q0.75 -0.265625 1.71875 -0.265625q0.984375 0 1.59375 0.234375q0.609375 0.21875 0.890625 0.5625q0.28125 0.34375 0.40625 0.875q0.0625 0.328125 0.0625 1.1875l0 1.71875q0 1.796875 0.078125 2.28125q0.078125 0.46875 0.328125 0.90625l-1.34375 0q-0.203125 -0.40625 -0.265625 -0.9375zm-0.109375 -2.875q-0.703125 0.28125 -2.09375 0.484375q-0.796875 0.109375 -1.125 0.265625q-0.328125 0.140625 -0.515625 0.421875q-0.171875 0.265625 -0.171875 0.59375q0 0.515625 0.390625 0.859375q0.390625 0.34375 1.140625 0.34375q0.734375 0 1.3125 -0.3125q0.59375 -0.328125 0.859375 -0.890625q0.203125 -0.4375 0.203125 -1.296875l0 -0.46875zm8.229248 3.8125l0 -0.953125q-0.71875 1.125 -2.125 1.125q-0.90625 0 -1.671875 -0.5q-0.75 -0.5 -1.171875 -1.390625q-0.421875 -0.90625 -0.421875 -2.078125q0 -1.140625 0.375 -2.0625q0.390625 -0.921875 1.140625 -1.40625q0.765625 -0.5 1.703125 -0.5q0.6875 0 1.21875 0.296875q0.53125 0.28125 0.875 0.734375l0 -3.75l1.28125 0l0 10.484375l-1.203125 0zm-4.0625 -3.796875q0 1.46875 0.609375 2.1875q0.625 0.71875 1.453125 0.71875q0.84375 0 1.4375 -0.6875q0.59375 -0.6875 0.59375 -2.109375q0 -1.5625 -0.609375 -2.28125q-0.59375 -0.734375 -1.484375 -0.734375q-0.84375 0 -1.421875 0.703125q-0.578125 0.703125 -0.578125 2.203125zm9.744843 6.875q-1.0625 -1.34375 -1.796875 -3.140625q-0.734375 -1.8125 -0.734375 -3.734375q0 -1.703125 0.546875 -3.265625q0.640625 -1.8125 1.984375 -3.609375l0.921875 0q-0.859375 1.484375 -1.140625 2.125q-0.4375 0.984375 -0.6875 2.0625q-0.296875 1.34375 -0.296875 2.6875q0 3.453125 2.125 6.875l-0.921875 0zm3.2712708 0l-0.921875 0q2.140625 -3.421875 2.140625 -6.875q0 -1.34375 -0.3125 -2.671875q-0.25 -1.0625 -0.671875 -2.046875q-0.28125 -0.65625 -1.15625 -2.15625l0.921875 0q1.34375 1.796875 1.984375 3.609375q0.546875 1.5625 0.546875 3.265625q0 1.921875 -0.734375 3.734375q-0.734375 1.796875 -1.796875 3.140625z" fill-rule="nonzero"/><path fill="#000000" d="m327.07327 260.17664l-2.328125 -7.5937347l1.328125 0l1.203125 4.3749847l0.453125 1.640625q0.03125 -0.125 0.390625 -1.578125l1.21875 -4.4374847l1.328125 0l1.125 4.4062347l0.390625 1.453125l0.4375 -1.46875l1.296875 -4.3906097l1.25 0l-2.375 7.5937347l-1.34375 0l-1.203125 -4.5468597l-0.296875 -1.296875l-1.53125 5.8437347l-1.34375 0zm9.162384 0l0 -7.5937347l1.15625 0l0 1.140625q0.453125 -0.796875 0.828125 -1.046875q0.375 -0.265625 0.8125 -0.265625q0.65625 0 1.328125 0.40625l-0.4375 1.203125q-0.46875 -0.28125 -0.953125 -0.28125q-0.421875 0 -0.765625 0.25q-0.328125 0.25 -0.46875 0.703125q-0.21875 0.6875 -0.21875 1.4999847l0 3.984375l-1.28125 0zm4.8962708 -9.01561l0 -1.46875l1.296875 0l0 1.46875l-1.296875 0zm0 9.01561l0 -7.5937347l1.296875 0l0 7.5937347l-1.296875 0zm6.0686646 -1.15625l0.1875 1.140625q-0.546875 0.109375 -0.984375 0.109375q-0.6875 0 -1.078125 -0.21875q-0.390625 -0.21875 -0.546875 -0.578125q-0.15625 -0.359375 -0.15625 -1.515625l0 -4.3749847l-0.953125 0l0 -1.0l0.953125 0l0 -1.890625l1.28125 -0.765625l0 2.65625l1.296875 0l0 1.0l-1.296875 0l0 4.4374847q0 0.546875 0.0625 0.71875q0.078125 0.15625 0.21875 0.25q0.15625 0.078125 0.453125 0.078125q0.203125 0 0.5625 -0.046875zm6.4625854 -1.296875l1.328125 0.171875q-0.3125 1.171875 -1.171875 1.8125q-0.84375 0.640625 -2.171875 0.640625q-1.671875 0 -2.65625 -1.015625q-0.96875 -1.03125 -0.96875 -2.890625q0 -1.9218597 0.984375 -2.9687347q1.0 -1.0625 2.578125 -1.0625q1.515625 0 2.484375 1.03125q0.96875 1.03125 0.96875 2.9218597q0 0.109375 -0.015625 0.34375l-5.65625 0q0.0625 1.25 0.703125 1.921875q0.640625 0.65625 1.59375 0.65625q0.703125 0 1.203125 -0.359375q0.5 -0.375 0.796875 -1.203125zm-4.234375 -2.0781097l4.25 0q-0.09375 -0.953125 -0.484375 -1.4375q-0.625 -0.75 -1.609375 -0.75q-0.875 0 -1.484375 0.59375q-0.609375 0.59375 -0.671875 1.59375zm9.635498 7.6093597q-1.0625 -1.34375 -1.796875 -3.140625q-0.734375 -1.8125 -0.734375 -3.734375q0 -1.7031097 0.546875 -3.2656097q0.640625 -1.8125 1.984375 -3.609375l0.921875 0q-0.859375 1.484375 -1.140625 2.125q-0.4375 0.984375 -0.6875 2.0625q-0.296875 1.34375 -0.296875 2.6874847q0 3.453125 2.125 6.875l-0.921875 0zm3.2712708 0l-0.921875 0q2.140625 -3.421875 2.140625 -6.875q0 -1.3437347 -0.3125 -2.6718597q-0.25 -1.0625 -0.671875 -2.046875q-0.28125 -0.65625 -1.15625 -2.15625l0.921875 0q1.34375 1.796875 1.984375 3.609375q0.546875 1.5625 0.546875 3.2656097q0 1.921875 -0.734375 3.734375q-0.734375 1.796875 -1.796875 3.140625z" fill-rule="nonzero"/><path fill="#000000" fill-opacity="0.0" d="m501.11743 219.49664l88.75592 0l0 54.92914l-88.75592 0z" fill-rule="evenodd"/><path fill="#000000" d="m531.162 243.20164l1.25 0.1875q0.078125 0.578125 0.4375 0.84375q0.46875 0.359375 1.3125 0.359375q0.890625 0 1.375 -0.359375q0.484375 -0.359375 0.65625 -1.0q0.109375 -0.390625 0.09375 -1.65625q-0.84375 1.0 -2.109375 1.0q-1.5625 0 -2.421875 -1.125q-0.859375 -1.140625 -0.859375 -2.71875q0 -1.09375 0.390625 -2.0q0.40625 -0.921875 1.140625 -1.421875q0.75 -0.5 1.765625 -0.5q1.34375 0 2.21875 1.078125l0 -0.90625l1.1875 0l0 6.5625q0 1.78125 -0.359375 2.515625q-0.359375 0.734375 -1.15625 1.15625q-0.78125 0.4375 -1.921875 0.4375q-1.359375 0 -2.203125 -0.609375q-0.828125 -0.609375 -0.796875 -1.84375zm1.0625 -4.5625q0 1.5 0.59375 2.1875q0.59375 0.6875 1.484375 0.6875q0.890625 0 1.484375 -0.6875q0.609375 -0.6875 0.609375 -2.140625q0 -1.390625 -0.625 -2.09375q-0.609375 -0.71875 -1.484375 -0.71875q-0.859375 0 -1.46875 0.703125q-0.59375 0.6875 -0.59375 2.0625zm12.526123 1.484375l1.328125 0.171875q-0.3125 1.171875 -1.171875 1.8125q-0.84375 0.640625 -2.171875 0.640625q-1.671875 0 -2.65625 -1.015625q-0.96875 -1.03125 -0.96875 -2.890625q0 -1.921875 0.984375 -2.96875q1.0 -1.0625 2.578125 -1.0625q1.515625 0 2.484375 1.03125q0.96875 1.03125 0.96875 2.921875q0 0.109375 -0.015625 0.34375l-5.65625 0q0.0625 1.25 0.703125 1.921875q0.640625 0.65625 1.59375 0.65625q0.703125 0 1.203125 -0.359375q0.5 -0.375 0.796875 -1.203125zm-4.234375 -2.078125l4.25 0q-0.09375 -0.953125 -0.484375 -1.4375q-0.625 -0.75 -1.609375 -0.75q-0.875 0 -1.484375 0.59375q-0.609375 0.59375 -0.671875 1.59375zm9.994873 3.375l0.1875 1.140625q-0.546875 0.109375 -0.984375 0.109375q-0.6875 0 -1.078125 -0.21875q-0.390625 -0.21875 -0.546875 -0.578125q-0.15625 -0.359375 -0.15625 -1.515625l0 -4.375l-0.953125 0l0 -1.0l0.953125 0l0 -1.890625l1.28125 -0.765625l0 2.65625l1.296875 0l0 1.0l-1.296875 0l0 4.4375q0 0.546875 0.0625 0.71875q0.078125 0.15625 0.21875 0.25q0.15625 0.078125 0.453125 0.078125q0.203125 0 0.5625 -0.046875zm3.7125854 4.234375q-1.0625 -1.34375 -1.796875 -3.140625q-0.734375 -1.8125 -0.734375 -3.734375q0 -1.703125 0.546875 -3.265625q0.640625 -1.8125 1.984375 -3.609375l0.921875 0q-0.859375 1.484375 -1.140625 2.125q-0.4375 0.984375 -0.6875 2.0625q-0.296875 1.34375 -0.296875 2.6875q0 3.453125 2.125 6.875l-0.921875 0zm3.2713013 0l-0.921875 0q2.140625 -3.421875 2.140625 -6.875q0 -1.34375 -0.3125 -2.671875q-0.25 -1.0625 -0.671875 -2.046875q-0.28125 -0.65625 -1.15625 -2.15625l0.921875 0q1.34375 1.796875 1.984375 3.609375q0.546875 1.5625 0.546875 3.265625q0 1.921875 -0.734375 3.734375q-0.734375 1.796875 -1.796875 3.140625z" fill-rule="nonzero"/><path fill="#000000" d="m531.29224 257.911l1.265625 -0.203125q0.109375 0.765625 0.59375 1.171875q0.5 0.40625 1.375 0.40625q0.890625 0 1.3125 -0.359375q0.4375 -0.359375 0.4375 -0.84375q0 -0.4375 -0.375 -0.6875q-0.265625 -0.171875 -1.3125 -0.4375q-1.421875 -0.359375 -1.96875 -0.609375q-0.546875 -0.265625 -0.828125 -0.73435974q-0.28125 -0.46875 -0.28125 -1.015625q0 -0.515625 0.21875 -0.9375q0.234375 -0.4375 0.640625 -0.734375q0.296875 -0.21875 0.8125 -0.359375q0.53125 -0.15625 1.125 -0.15625q0.890625 0 1.5625 0.265625q0.671875 0.25 1.0 0.6875q0.328125 0.4375 0.4375 1.171875l-1.25 0.171875q-0.09375 -0.578125 -0.5 -0.90625q-0.40625 -0.34375 -1.15625 -0.34375q-0.890625 0 -1.28125 0.296875q-0.375 0.296875 -0.375 0.6875q0 0.25 0.15625 0.453125q0.15625 0.203125 0.5 0.34375q0.1875 0.078125 1.140625 0.328125q1.359375 0.359375 1.890625 0.59373474q0.546875 0.234375 0.859375 0.6875q0.3125 0.4375 0.3125 1.09375q0 0.640625 -0.375 1.21875q-0.375 0.5625 -1.09375 0.875q-0.703125 0.3125 -1.59375 0.3125q-1.484375 0 -2.265625 -0.609375q-0.765625 -0.625 -0.984375 -1.828125zm13.046875 -0.1875l1.328125 0.171875q-0.3125 1.171875 -1.171875 1.8125q-0.84375 0.640625 -2.171875 0.640625q-1.671875 0 -2.65625 -1.015625q-0.96875 -1.03125 -0.96875 -2.890625q0 -1.9218597 0.984375 -2.9687347q1.0 -1.0625 2.578125 -1.0625q1.515625 0 2.484375 1.03125q0.96875 1.03125 0.96875 2.9218597q0 0.109375 -0.015625 0.34375l-5.65625 0q0.0625 1.25 0.703125 1.921875q0.640625 0.65625 1.59375 0.65625q0.703125 0 1.203125 -0.359375q0.5 -0.375 0.796875 -1.203125zm-4.234375 -2.0781097l4.25 0q-0.09375 -0.953125 -0.484375 -1.4375q-0.625 -0.75 -1.609375 -0.75q-0.875 0 -1.484375 0.59375q-0.609375 0.59375 -0.671875 1.59375zm9.994873 3.3749847l0.1875 1.140625q-0.546875 0.109375 -0.984375 0.109375q-0.6875 0 -1.078125 -0.21875q-0.390625 -0.21875 -0.546875 -0.578125q-0.15625 -0.359375 -0.15625 -1.515625l0 -4.3749847l-0.953125 0l0 -1.0l0.953125 0l0 -1.890625l1.28125 -0.765625l0 2.65625l1.296875 0l0 1.0l-1.296875 0l0 4.4374847q0 0.546875 0.0625 0.71875q0.078125 0.15625 0.21875 0.25q0.15625 0.078125 0.453125 0.078125q0.203125 0 0.5625 -0.046875zm3.7125854 4.234375q-1.0625 -1.34375 -1.796875 -3.140625q-0.734375 -1.8125 -0.734375 -3.734375q0 -1.7031097 0.546875 -3.2656097q0.640625 -1.8125 1.984375 -3.609375l0.921875 0q-0.859375 1.484375 -1.140625 2.125q-0.4375 0.984375 -0.6875 2.0625q-0.296875 1.34375 -0.296875 2.6874847q0 3.453125 2.125 6.875l-0.921875 0zm3.2713013 0l-0.921875 0q2.140625 -3.421875 2.140625 -6.875q0 -1.3437347 -0.3125 -2.6718597q-0.25 -1.0625 -0.671875 -2.046875q-0.28125 -0.65625 -1.15625 -2.15625l0.921875 0q1.34375 1.796875 1.984375 3.609375q0.546875 1.5625 0.546875 3.2656097q0 1.921875 -0.734375 3.734375q-0.734375 1.796875 -1.796875 3.140625z" fill-rule="nonzero"/></g></svg>